<svg width="32" height="32" viewBox="0 0 32 32" fill="none" xmlns="http://www.w3.org/2000/svg">
<g clip-path="url(#clip0_67_42)">
<path d="M24.4 7.61329C23.88 7.09329 23.04 7.09329 22.52 7.61329L16 14.12L9.48002 7.59996C8.96002 7.07996 8.12002 7.07996 7.60002 7.59996C7.08002 8.11996 7.08002 8.95996 7.60002 9.47996L14.12 16L7.60002 22.52C7.08002 23.04 7.08002 23.88 7.60002 24.4C8.12002 24.92 8.96002 24.92 9.48002 24.4L16 17.88L22.52 24.4C23.04 24.92 23.88 24.92 24.4 24.4C24.92 23.88 24.92 23.04 24.4 22.52L17.88 16L24.4 9.47996C24.9067 8.97329 24.9067 8.11996 24.4 7.61329V7.61329Z" fill="white"/>
</g>
<defs>
<clipPath id="clip0_67_42">
<rect width="32" height="32" fill="white"/>
</clipPath>
</defs>
</svg>
